<svg width="28" height="28" viewBox="0 0 28 28" fill="none" xmlns="http://www.w3.org/2000/svg">
<path d="M22.7692 8.11005C22.1646 7.56332 21.1844 7.56332 20.5798 8.11005C19.9752 8.65678 19.9752 9.54322 20.5798 10.0899L23.3555 12.6H9.28906C8.43403 12.6 7.74088 13.2268 7.74088 14C7.74088 14.7732 8.43403 15.4 9.28906 15.4H23.3555L20.5798 17.9101C19.9752 18.4568 19.9752 19.3432 20.5798 19.8899C21.1844 20.4367 22.1646 20.4367 22.7692 19.8899L27.0931 15.9799C28.3023 14.8864 28.3023 13.1136 27.0931 12.0201L22.7692 8.11005Z" fill=""/>
<path fill-rule="evenodd" clip-rule="evenodd" d="M0 4.2C0 1.8804 2.07943 0 4.64453 0H13.9336C16.4987 0 18.5781 1.8804 18.5781 4.2V5.6C18.5781 6.3732 17.885 7 17.0299 7C16.1749 7 15.4818 6.3732 15.4818 5.6V4.2C15.4818 3.4268 14.7886 2.8 13.9336 2.8H4.64453C3.7895 2.8 3.09635 3.4268 3.09635 4.2V23.8C3.09635 24.5732 3.7895 25.2 4.64453 25.2H13.9336C14.7886 25.2 15.4818 24.5732 15.4818 23.8V22.4C15.4818 21.6268 16.1749 21 17.0299 21C17.885 21 18.5781 21.6268 18.5781 22.4V23.8C18.5781 26.1196 16.4987 28 13.9336 28H4.64453C2.07943 28 0 26.1196 0 23.8V4.2Z" fill=""/>
</svg>
